<?xml version="1.0" encoding="utf-8"?>
<svg viewBox="0 0 185 245" xmlns="http://www.w3.org/2000/svg">
  <g transform="matrix(0.300169, 0, 0, 0.300067, 4, 3)">
    <g transform="translate(0 -252.36)">
      <path d="M 296.52 252.36 C 132.77 252.349 0.01 385.09 0 548.84 C -0.011 712.61 296.52 1052.36 300.995 1034.868 C 296.52 1052.36 593.01 712.59 593 548.84 C 592.989 385.1 460.26 252.37 296.52 252.36 Z" color="#000000" color-rendering="auto" image-rendering="auto" shape-rendering="auto" solid-color="#000000" style="isolation: auto; mix-blend-mode: normal; stroke-opacity: 0; paint-order: fill; fill: rgb(255, 0, 0);"/>
    </g>
  </g>
  <g transform="matrix(0.278333, 0, 0, 0.247587, 59.418846, 40.07832)" style="">
    <g id="layer1" transform="translate(-169.77 -382.33)">
      <g id="g9357" transform="translate(-256.58 42.426)">
        <path id="path9347" style="fill: rgb(255, 255, 255);" d="m315.67 347.53c0 20.503-16.621 37.123-37.123 37.123-20.503 0-37.123-16.621-37.123-37.123 0-20.503 16.621-37.123 37.123-37.123 20.503 0 37.123 16.621 37.123 37.123z" transform="translate(294.11 29.495)"/>
        <path id="path9349" d="m516.35 490.41s-30.339 157.53-36.871 168.19c-5.5865 9.1154-49.18 80.642-49.18 80.642-9.3065 15.26-0.48739 26.17 9.3724 31.862 8.3938 4.8456 26.437 3.6458 32.403-6.5301 0 0 48.366-75.267 53.643-91.5 3.6534-11.238 12.143-57.857 12.143-57.857s46.996 48.47 52.143 57.143c6.4876 10.933 18.571 87.143 18.571 87.143 2.8898 13.56 15.822 17.982 29.286 15.714 10.633-1.7908 21.753-8.9851 19.286-22.143 0 0-10.746-88.36-19.286-102.86-10.191-17.302-65-76.429-65-76.429l15.714-70s10.086 20.446 17.143 29.286c8.0255 10.053 58.571 39.286 58.571 39.286 4.6363 3.1097 15.133 1.3962 19.286-6.4286 3.3332-6.2806 3.1763-16.454-4.2857-21.429 0 0-41.655-26.151-51.429-34.286-10.87-9.03-32.86-69.27-32.86-69.27-6.8208-9.3864-16.151-19.742-32.143-20-16.119-0.26028-24.187 8.6196-31.429 13.571 0 0-61.747 45.105-67.857 54.286-6.1469 9.236-17.143 78.571-17.143 78.571-1.7236 7.9 1.3621 14.253 10.714 16.429 11.443 2.662 19.645-4.4634 20.714-10 0 0 7.0508-54.765 12.143-62.857 5.9288-9.4214 26.346-20.521 26.346-20.521z" style="fill: rgb(255, 255, 255);"/>
      </g>
    </g>
  </g>
</svg>